name analog
datacolumns 19
datarows 42
range 0.0 0.0205
endheader
time	ground_force_vx	ground_force_vy	ground_force_vz	ground_force_px	ground_force_py	ground_force_pz	l_ground_force_vx	l_ground_force_vy	l_ground_force_vz	l_ground_force_px	l_ground_force_py	l_ground_force_pz	ground_torque_x	ground_torque_y	ground_torque_z	l_ground_torque_x	l_ground_torque_y	l_ground_torque_z
0.0	-0.0	-0.0	-0.0	-8.653419494628906	17.153066635131836	-550.1676635742188	9.332128524780272	-30.21472549438477	-264.3421936035156	-0.0	-0.0	-0.0	-0.0	-0.0	-0.0	96058.71875	-20088.451171875	6594.8232421875
0.0005	-0.0	-0.0	-0.0	-8.149030685424805	17.16217613220215	-553.346923828125	9.048500061035156	-29.596546173095703	-259.64630126953125	-0.0	-0.0	-0.0	-0.0	-0.0	-0.0	94588.453125	-19861.0	6517.5478515625
0.001	-0.0	-0.0	-0.0	-8.385787963867188	17.143774032592773	-555.783447265625	9.28361701965332	-29.194744110107425	-255.6840057373047	-0.0	-0.0	-0.0	-0.0	-0.0	-0.0	92840.4609375	-19491.130859375	6406.6201171875
0.0015	-0.0	-0.0	-0.0	-7.782693862915039	17.736949920654297	-560.2537231445312	8.959789276123047	-28.762083053588867	-252.5423583984375	-0.0	-0.0	-0.0	-0.0	-0.0	-0.0	91375.296875	-19186.951171875	6228.5146484375
0.002	-0.0	-0.0	-0.0	-7.5030341148376465	17.478900909423828	-561.630126953125	9.008652687072754	-28.673852920532227	-247.98350524902344	-0.0	-0.0	-0.0	-0.0	-0.0	-0.0	90024.03125	-18830.44140625	6146.87451171875
0.0025	-0.0	-0.0	-0.0	-7.244899749755859	17.410869598388672	-565.83154296875	8.592402458190918	-28.183666229248047	-244.6837310791016	-0.0	-0.0	-0.0	-0.0	-0.0	-0.0	88690.5859375	-18444.75390625	6056.49462890625
0.003	-0.0	-0.0	-0.0	-7.284902095794678	17.907588958740234	-569.2810668945312	8.210328102111816	-27.870052337646484	-242.0341796875	-0.0	-0.0	-0.0	-0.0	-0.0	-0.0	87571.953125	-17826.80078125	5746.41064453125
0.0035	-0.0	-0.0	-0.0	-6.690788269042969	17.79745864868164	-571.6406860351562	7.873937129974365	-27.63551521301269	-237.3505706787109	-0.0	-0.0	-0.0	-0.0	-0.0	-0.0	86351.4921875	-17517.685546875	5575.419921875
0.004	-0.0	-0.0	-0.0	-6.541232109069824	17.944049835205078	-573.01025390625	7.362995147705078	-27.09370803833008	-234.58322143554688	-0.0	-0.0	-0.0	-0.0	-0.0	-0.0	85028.9375	-16946.72265625	5466.71240234375
0.0045000000000000005	-0.0	-0.0	-0.0	-6.840125560760498	17.87548828125	-577.4108276367188	7.362995147705078	-27.18221092224121	-231.2120361328125	-0.0	-0.0	-0.0	-0.0	-0.0	-0.0	84004.8203125	-16907.744140625	5287.9189453125
0.005	-0.0	-0.0	-0.0	-6.591832160949707	17.628345489501953	-582.1177368164062	7.087453842163086	-26.515241622924805	-228.80540466308597	-0.0	-0.0	-0.0	-0.0	-0.0	-0.0	82807.5	-16536.265625	5189.51220703125
0.0055	-0.0	-0.0	-0.0	-6.601999282836914	17.162927627563477	-584.0025024414062	7.057248115539551	-26.338741302490234	-224.5044860839844	-0.0	-0.0	-0.0	-0.0	-0.0	-0.0	81554.546875	-16047.673828125	5051.2919921875
0.006	-0.0	-0.0	-0.0	-6.185199737548828	17.182308197021484	-589.182861328125	6.6041765213012695	-25.69209861755371	-221.86167907714844	-0.0	-0.0	-0.0	-0.0	-0.0	-0.0	80688.3359375	-15846.9990234375	4961.64990234375
0.006500000000000001	-0.0	-0.0	-0.0	-6.185333728790283	17.330900192260742	-595.8145751953125	6.623351097106934	-25.485584259033203	-217.9461669921875	-0.0	-0.0	-0.0	-0.0	-0.0	-0.0	79353.890625	-15465.7099609375	4757.71044921875
0.007	-0.0	-0.0	-0.0	-5.511033535003662	17.093036651611328	-600.3662719726562	6.179905891418457	-25.22065544128418	-214.9979705810547	-0.0	-0.0	-0.0	-0.0	-0.0	-0.0	77907.1328125	-15103.3955078125	4688.14111328125
0.0075	-0.0	-0.0	-0.0	-5.8878936767578125	17.321516036987305	-607.9393920898438	6.200011730194092	-24.47480773925781	-210.38101196289065	-0.0	-0.0	-0.0	-0.0	-0.0	-0.0	76769.7890625	-14793.0693359375	4559.767578125
0.008	-0.0	-0.0	-0.0	-5.936569213867188	17.340925216674805	-613.6663208007812	6.209754943847656	-23.84685516357422	-206.73629760742188	-0.0	-0.0	-0.0	-0.0	-0.0	-0.0	75698.09375	-14386.4658203125	4494.0986328125
0.0085	-0.0	-0.0	-0.0	-6.483071804046631	17.81588363647461	-620.1435546875	6.209754943847656	-23.336572647094727	-203.7882232666016	-0.0	-0.0	-0.0	-0.0	-0.0	-0.0	73944.2109375	-14063.8974609375	4388.7666015625
0.009000000000000001	-0.0	-0.0	-0.0	-6.383691310882568	17.766109466552734	-625.7534790039062	6.101538181304932	-22.708568572998047	-198.978759765625	-0.0	-0.0	-0.0	-0.0	-0.0	-0.0	72204.296875	-13553.8505859375	4385.52587890625
0.0095	-0.0	-0.0	-0.0	-6.541457653045654	18.112201690673828	-631.2477416992188	6.179746150970459	-21.93365478515625	-194.0915069580078	-0.0	-0.0	-0.0	-0.0	-0.0	-0.0	70800.921875	-13195.4814453125	4273.5703125
0.01	-0.0	-0.0	-0.0	-6.898208141326904	18.025131225585938	-634.426025390625	6.061593055725098	-21.34471702575684	-190.75559997558597	-0.0	-0.0	-0.0	-0.0	-0.0	-0.0	69138.0234375	-12989.9912109375	4244.2119140625
0.0105	-0.0	-0.0	-0.0	-7.186684608459473	18.153738021850582	-638.1961669921875	6.140058994293213	-20.86410140991211	-187.0305328369141	-0.0	-0.0	-0.0	-0.0	-0.0	-0.0	67583.015625	-12469.037109375	4188.4755859375
0.011	-0.0	-0.0	-0.0	-7.572343349456787	18.46820640563965	-642.1532592773438	6.0323333740234375	-20.030271530151367	-181.4445343017578	-0.0	-0.0	-0.0	-0.0	-0.0	-0.0	65896.640625	-12153.1181640625	4122.50390625
0.0115	-0.0	-0.0	-0.0	-7.215449333190918	18.52853202819824	-648.043212890625	6.397436618804932	-19.36287879943848	-176.51632690429688	-0.0	-0.0	-0.0	-0.0	-0.0	-0.0	64265.51171875	-12017.8193359375	4109.81640625
0.012	-0.0	-0.0	-0.0	-7.275993824005127	18.271732330322266	-650.472900390625	6.702830791473389	-18.890552520751957	-171.70126342773438	-0.0	-0.0	-0.0	-0.0	-0.0	-0.0	62453.66796875	-11569.228515625	4053.576416015625
0.0125	-0.0	-0.0	-0.0	-7.14758825302124	18.321666717529297	-654.4423828125	7.03936767578125	-18.243608474731445	-166.58627319335938	-0.0	-0.0	-0.0	-0.0	-0.0	-0.0	60800.8671875	-11131.06640625	3971.87451171875
0.013000000000000001	-0.0	-0.0	-0.0	-7.086835861206055	18.30011367797852	-658.5950927734375	7.128232479095459	-17.42791748046875	-161.65719604492188	-0.0	-0.0	-0.0	-0.0	-0.0	-0.0	59131.08203125	-10650.0146484375	3923.289306640625
0.0135	-0.0	-0.0	-0.0	-6.684235572814941	18.143468856811523	-663.409912109375	6.979589939117432	-16.830522537231445	-156.76907348632812	-0.0	-0.0	-0.0	-0.0	-0.0	-0.0	57665.86328125	-10666.4033203125	3998.292724609375
0.014	-0.0	-0.0	-0.0	-6.740866184234619	17.719722747802734	-669.2760009765625	7.146518707275391	-16.41006088256836	-152.77468872070312	-0.0	-0.0	-0.0	-0.0	-0.0	-0.0	55723.10546875	-10192.8818359375	3899.963134765625
0.0145	-0.0	-0.0	-0.0	-6.316815376281738	17.99336051940918	-673.117431640625	7.224606037139893	-15.700061798095703	-148.08218383789062	-0.0	-0.0	-0.0	-0.0	-0.0	-0.0	53995.8046875	-9938.4970703125	3903.75146484375
0.015	-0.0	-0.0	-0.0	-6.094326019287109	17.736949920654297	-676.847412109375	6.958437442779541	-14.97586154937744	-144.04612731933594	-0.0	-0.0	-0.0	-0.0	-0.0	-0.0	52344.83984375	-9609.8349609375	3798.141845703125
0.0155	-0.0	-0.0	-0.0	-5.85448694229126	18.060094833374023	-681.306396484375	7.107653617858887	-14.396434783935549	-140.7505645751953	-0.0	-0.0	-0.0	-0.0	-0.0	-0.0	50813.16015625	-9293.0634765625	3624.019287109375
0.016	-0.0	-0.0	-0.0	-5.84888219833374	18.127002716064453	-684.81591796875	7.018994331359863	-14.064737319946287	-134.81520080566406	-0.0	-0.0	-0.0	-0.0	-0.0	-0.0	49135.44140625	-8910.7236328125	3596.536376953125
0.0165	-0.0	-0.0	-0.0	-6.0767035484313965	17.970590591430664	-688.855224609375	6.780917644500732	-13.534952163696287	-130.82171630859375	-0.0	-0.0	-0.0	-0.0	-0.0	-0.0	47655.74609375	-8408.4853515625	3386.735107421875
0.017	-0.0	-0.0	-0.0	-5.563596725463867	18.17621421813965	-692.9390869140625	6.508849143981934	-13.132179260253906	-126.4793701171875	-0.0	-0.0	-0.0	-0.0	-0.0	-0.0	45893.25390625	-8057.34423828125	3312.643798828125
0.0175	-0.0	-0.0	-0.0	-6.150808334350586	18.33808898925781	-696.2716674804688	5.9546732902526855	-12.641003608703612	-121.48241424560548	-0.0	-0.0	-0.0	-0.0	-0.0	-0.0	44406.0546875	-7773.01708984375	3104.66259765625
0.018000000000000002	-0.0	-0.0	-0.0	-5.981607913970947	18.232891082763672	-701.1707153320312	5.577668190002441	-12.12763786315918	-117.20596313476562	-0.0	-0.0	-0.0	-0.0	-0.0	-0.0	42617.10546875	-7671.41796875	2893.16015625
0.0185	-0.0	-0.0	-0.0	-6.791529178619385	18.182601928710938	-706.1604614257812	5.616359233856201	-11.658462524414062	-112.884521484375	-0.0	-0.0	-0.0	-0.0	-0.0	-0.0	40991.53125	-7059.39111328125	2936.030029296875
0.019	-0.0	-0.0	-0.0	-6.923609733581543	17.76412582397461	-711.5498657226562	5.361374378204346	-10.885980606079102	-107.77972412109376	-0.0	-0.0	-0.0	-0.0	-0.0	-0.0	39039.25390625	-6573.26171875	2602.29736328125
0.0195	-0.0	-0.0	-0.0	-6.942951679229736	17.888113021850586	-716.0953979492188	5.411357879638672	-10.951889038085938	-103.39337921142578	-0.0	-0.0	-0.0	-0.0	-0.0	-0.0	37504.7265625	-6324.10986328125	2644.947265625
0.02	-0.0	-0.0	-0.0	-7.0088887214660645	17.508264541625977	-721.0400390625	5.045135021209717	-10.521610260009766	-98.89948272705078	-0.0	-0.0	-0.0	-0.0	-0.0	-0.0	35666.6328125	-6087.38720703125	2526.164306640625
0.0205	-0.0	-0.0	-0.0	-6.705891609191895	17.546899795532227	-725.7511596679688	4.9062700271606445	-9.742443084716797	-92.93621826171876	-0.0	-0.0	-0.0	-0.0	-0.0	-0.0	33931.76953125	-5671.50634765625	2488.964599609375
